<svg xmlns="http://www.w3.org/2000/svg" aria-hidden="true" style="position:absolute;width:0;height:0;overflow:hidden"><defs><symbol id="client-6-1" viewBox="0 0 67 32"><path d="M33.799 15.248a2.088 2.088 0 0 1-.431-1.423v.006-2.054c0-.629.143-1.108.429-1.435s.777-.491 1.472-.489c.654 0 1.118.139 1.392.418.299.356.444.789.411 1.228v.483h-1.169v-.489a2.47 2.47 0 0 0-.034-.478.462.462 0 0 0-.166-.284l-.001-.001a.668.668 0 0 0-.426-.111h.002a.708.708 0 0 0-.448.119l.003-.002a.553.553 0 0 0-.193.309l-.001.004c-.03.141-.047.302-.047.468v.042-.002 2.492a1.27 1.27 0 0 0 .154.707l-.003-.007a.55.55 0 0 0 .23.168l.004.001c.095.037.199.05.302.04a.635.635 0 0 0 .414-.113.503.503 0 0 0 .174-.3v-.003c.027-.165.04-.332.036-.499v-.506h1.17v.462a1.869 1.869 0 0 1-.408 1.294l.003-.004c-.268.305-.725.457-1.399.457s-1.181-.163-1.47-.501zm4.868.022c-.295-.32-.443-.786-.443-1.402v-2.16c0-.61.148-1.072.443-1.385s.789-.469 1.482-.468c.688 0 1.179.156 1.474.468.296.314.446.775.446 1.385v2.16c0 .61-.15 1.078-.45 1.4s-.789.482-1.47.482-1.184-.163-1.482-.48zm2.027-.519c.106-.199.154-.42.14-.639v-2.645a1.17 1.17 0 0 0-.141-.633l.003.006a.552.552 0 0 0-.234-.171l-.004-.001a.626.626 0 0 0-.312-.037h.003a.643.643 0 0 0-.314.038l.005-.002a.574.574 0 0 0-.24.171l-.001.001a1.138 1.138 0 0 0-.14.627v2.658c-.015.22.033.439.14.639a.805.805 0 0 0 .853.156l-.006.002a.724.724 0 0 0 .247-.159v-.012zm2.782-4.834h1.259l.947 3.986.968-3.986h1.225l.124 5.753h-.906l-.097-3.998-.934 3.998h-.726l-.969-4.013-.09 4.013h-.915l.114-5.753zm5.934 0h1.961c1.129 0 1.695.545 1.695 1.633 0 1.043-.595 1.564-1.785 1.563h-.668v2.556h-1.21l.007-5.753zm1.676 2.459c.119.013.241.004.356-.028s.22-.083.31-.154a.926.926 0 0 0 .174-.654v.004l.001-.066c0-.162-.021-.319-.062-.469l.003.013a.418.418 0 0 0-.09-.158.513.513 0 0 0-.15-.115l-.003-.001a1.243 1.243 0 0 0-.476-.094l-.067.002h.003-.469v1.72h.469zm3.726-2.459h1.3l1.334 5.753h-1.129l-.263-1.326h-1.16l-.272 1.326h-1.145l1.334-5.753zm1.111 3.761-.453-2.415-.453 2.415h.905zm2.6-3.761h.848l1.621 3.282V9.917h1.005v5.753h-.806l-1.632-3.426v3.426h-1.038l.002-5.753zm5.828 3.559-1.348-3.551h1.136l.823 2.281.772-2.281h1.111l-1.332 3.551v2.194h-1.162v-2.194zm-28.683 4.709v.302h-.988v2.337h-.413v-2.337h-.993v-.302h2.394zm3.096 2.639h-.328a.141.141 0 0 1-.081-.025.14.14 0 0 1-.053-.06v-.001l-.286-.627h-1.37l-.286.627a.166.166 0 0 1-.043.071.144.144 0 0 1-.082.025h-.328l1.211-2.638h.421l1.225 2.628zm-2.005-.979h1.143l-.484-1.074a1.815 1.815 0 0 1-.087-.235l-.003-.014-.045.14-.044.11-.479 1.072zm4.092.72c.076.004.152.004.228 0a1.526 1.526 0 0 0 .379-.083l-.01.003c.053-.018.107-.041.162-.064v-.594h-.49a.094.094 0 0 1-.03-.005h.001a.108.108 0 0 1-.03-.016.06.06 0 0 1-.018-.021.048.048 0 0 1-.006-.024V19.555h.939v1.011a1.796 1.796 0 0 1-.498.213l-.013.003c-.1.025-.201.043-.303.054a3.51 3.51 0 0 1-.353.017h-.014c-.214 0-.419-.036-.609-.103l.013.004a1.499 1.499 0 0 1-.486-.277l.002.002a1.297 1.297 0 0 1-.31-.41l-.003-.008a1.301 1.301 0 0 1-.111-.53v-.019.001-.017c0-.193.04-.377.112-.544l-.003.009a1.2 1.2 0 0 1 .313-.417 1.47 1.47 0 0 1 .484-.274c.208-.068.428-.101.649-.098.113 0 .225.007.336.023a1.63 1.63 0 0 1 .53.172c.076.042.145.087.211.138l-.116.164a.101.101 0 0 1-.039.035h-.001a.112.112 0 0 1-.055.014.16.16 0 0 1-.076-.022h.001a1.563 1.563 0 0 1-.125-.066l.007.004a1.112 1.112 0 0 0-.155-.069l-.008-.002a1.522 1.522 0 0 0-.213-.057l-.01-.002a1.774 1.774 0 0 0-.292-.023h-.016.001-.015a1.45 1.45 0 0 0-.463.076l.01-.003a1.013 1.013 0 0 0-.356.208.903.903 0 0 0-.226.329 1.221 1.221 0 0 0 .003.888l-.003-.008a.95.95 0 0 0 .242.332c.1.09.22.161.353.209.154.046.317.063.479.052zm3.859-.042h1.323v.301h-1.727v-2.638h.414l-.01 2.337zm2.698.301h-.414v-2.638h.414v2.638zm1.539-2.626a.203.203 0 0 1 .064.048l1.769 1.989-.002-.047.002-.049v.002-1.966h.361v2.649h-.208l-.015.001a.19.19 0 0 1-.076-.015h.001a.23.23 0 0 1-.065-.05l-1.767-1.988v2.052h-.346v-2.638h.215c.023 0 .047.004.068.012zm5.243-.013v.291h-1.468v.871h1.188v.28h-1.188v.9h1.467v.29h-1.894v-2.632h1.894zM10.805 1.891l18.384 4.504v15.783l-18.384-4.501V1.89zM9.626.545v17.897l20.74 5.083V5.629L9.626.545z" /><path d="M20.742 31.834 0 26.747V8.851l20.742 5.084v17.899z" /><path d="m9.97 1.688 18.144 4.447-7.716 6.66-18.147-4.45 7.718-6.657zM9.626.545 0 8.851l20.742 5.085 9.624-8.306L9.626.544zm12.283 30.282 8.457-7.299-8.457-2.074v9.374z" /></symbol><symbol id="client-5-1" viewBox="0 0 44 32"><path d="M3.333 26.694c.171.19.262.429.257.673.009.16-.023.319-.091.466s-.174.279-.307.384a1.857 1.857 0 0 1-1.157.31H0v-4.266h1.993a1.85 1.85 0 0 1 1.104.283c.129.097.231.22.298.358s.098.289.089.44a.917.917 0 0 1-.232.652c-.155.17-.368.287-.607.334.27.044.514.174.688.365zM.947 26.05h.852a.869.869 0 0 0 .542-.142c.064-.052.114-.117.145-.189s.045-.15.037-.228c.006-.077-.007-.155-.038-.227s-.08-.137-.142-.19a.896.896 0 0 0-.558-.144H.947v1.119zm1.477 1.636c.068-.053.122-.12.157-.195s.05-.157.044-.238c.005-.082-.011-.165-.046-.24s-.09-.143-.16-.197a.95.95 0 0 0-.579-.154H.946v1.173h.905a.973.973 0 0 0 .572-.148zM7.408 28.528l-1.109-1.667h-.417v1.667h-.954v-4.266h1.806a1.91 1.91 0 0 1 1.257.363c.252.232.405.537.429.86s-.08.645-.295.905c-.223.23-.527.383-.861.433l1.181 1.705H7.408zM5.882 26.28h.78c.542 0 .813-.215.813-.646.005-.088-.009-.176-.044-.259s-.087-.158-.155-.221a.912.912 0 0 0-.613-.173h-.789l.009 1.298zM12.621 27.67H10.72l-.336.859h-1l1.745-4.218h1.081l1.739 4.218h-1l-.329-.859zm-.255-.647-.695-1.801-.694 1.801h1.389zM19.147 28.528H18.2l-2.123-2.901v2.901h-.944v-4.266h.944L18.2 27.18v-2.918h.947v4.266zM24.55 27.507a1.96 1.96 0 0 1-.857.752c-.412.187-.869.28-1.331.269h-1.685v-4.266h1.685c.461-.011.918.079 1.331.263.362.164.661.424.857.744.195.347.296.73.296 1.119s-.102.772-.296 1.119zm-1.084-.102c.27-.283.419-.645.419-1.018s-.149-.735-.419-1.018a1.766 1.766 0 0 0-1.185-.363h-.657v2.761h.657c.433.024.859-.106 1.185-.363zM13.214.533s12.221 4.154 11.961 10.164v10.166s-12.211-4.156-11.957-10.166L13.213.533zM36.062 18.483c2.308-1.43 4.978-2.316 7.764-2.576v-3.182c-3.211 1.114-5.935 3.134-7.764 5.758z" /><path d="M34.675 19.442c1.889-3.424 5.164-6.067 9.151-7.384v-9.17S26.422 8.805 26.79 17.364v14.474s.776-.265 1.995-.761c0-.463 0-.93.056-1.398.36-3.974 2.459-7.656 5.834-10.237z" /><path d="M33.02 24.819c.091-1.004.295-1.997.609-2.963-2.102 2.229-3.374 4.995-3.639 7.909-.025.275-.039.55-.046.834a52.536 52.536 0 0 0 3.347-1.588 13.52 13.52 0 0 1-.271-4.191zM33.712 24.871a12.935 12.935 0 0 0 .215 3.795c4.755-2.561 10.098-6.519 9.892-11.302v-.417c-3.397.342-6.575 1.679-9.047 3.805a13.074 13.074 0 0 0-1.06 4.118z" /></symbol><symbol id="client-4-1" viewBox="0 0 66 32"><path d="M10.204 9.77h-.002c-1.862 0-3.372 1.36-3.372 3.039v.002c0 1.678 1.509 3.039 3.372 3.039h.002c1.862 0 3.372-1.36 3.372-3.039v-.002c0-1.678-1.509-3.039-3.372-3.039zm24.885-.972c-.005-2.331-1.034-4.566-2.863-6.216C30.397.934 27.919.005 25.332-.001c-2.587.004-5.066.933-6.896 2.582s-2.86 3.885-2.864 6.217v12.858s19.515-1.959 19.516-12.855v-.002zM-.003 25.876c.005 1.623.721 3.177 1.993 4.325S4.987 31.995 6.786 32c1.799-.005 3.523-.651 4.795-1.798s1.989-2.701 1.994-4.324v-8.945S-.004 18.296-.004 25.877zm6.79 1.603c-.351 0-.695-.094-.988-.27a1.67 1.67 0 0 1-.651-.71l-.004-.01a1.443 1.443 0 0 1-.099-.935l-.002.01c.077-.329.249-.61.485-.82l.002-.001a1.83 1.83 0 0 1 .9-.437l.011-.002c.344-.062.702-.03 1.027.091s.603.326.798.59.3.574.3.891c.001.211-.044.42-.133.616s-.22.372-.385.522a1.804 1.804 0 0 1-.565.345l-.012.004a1.904 1.904 0 0 1-.68.123h-.002v-.006zm12.417-2.882v3.33h-.686v-3.33h.686zm1.327 1.422v.535h-1.514v-.535h1.514zm.159-1.422v.537h-1.673v-.537h1.673zm3.133 1.587v.158c0 .254-.034.48-.103.681-.066.199-.165.37-.292.517l.002-.002a1.27 1.27 0 0 1-.448.322 1.398 1.398 0 0 1-.554.112h-.022.001c-.208 0-.4-.037-.574-.112a1.29 1.29 0 0 1-.447-.321l-.001-.001a1.496 1.496 0 0 1-.292-.505l-.003-.011a2.071 2.071 0 0 1-.103-.651v-.032.002-.158c0-.254.034-.482.103-.681a1.52 1.52 0 0 1 .29-.515c.126-.14.276-.25.448-.324.164-.071.356-.113.557-.113h.017-.001c.211 0 .402.037.574.112.174.075.323.183.448.325.126.142.224.313.293.515.07.199.105.426.105.681zm-.693.157v-.162c0-.176-.016-.332-.048-.466a1.029 1.029 0 0 0-.144-.342l.002.004a.61.61 0 0 0-.225-.204l-.003-.002a.648.648 0 0 0-.295-.07h-.015.001a.65.65 0 0 0-.308.07.624.624 0 0 0-.225.204l-.001.002c-.063.097-.111.21-.138.332l-.001.007a1.99 1.99 0 0 0-.048.437v.031-.002.162c0 .176.016.331.048.467.032.134.08.247.142.341a.634.634 0 0 0 .225.206l.003.002c.09.047.193.07.308.07s.219-.023.309-.07a.62.62 0 0 0 .225-.206l.001-.002c.063-.098.111-.211.138-.333l.001-.007c.031-.136.048-.291.048-.467zm2.92.714v-.007a.45.45 0 0 0-.028-.156l.001.003a.304.304 0 0 0-.095-.132h-.001a.828.828 0 0 0-.194-.119l-.005-.002a2.627 2.627 0 0 0-.312-.118l-.02-.005a4.292 4.292 0 0 1-.456-.175l.026.011a1.826 1.826 0 0 1-.361-.216l.004.003a.947.947 0 0 1-.239-.281l-.003-.005a.78.78 0 0 1-.088-.361v-.017.001-.011c0-.134.034-.26.093-.371l-.002.004a.873.873 0 0 1 .256-.293c.109-.083.24-.146.389-.19.144-.042.31-.066.482-.066h.016-.001c.245 0 .46.044.642.133s.325.21.425.364c.101.154.153.33.153.528h-.681v-.012a.512.512 0 0 0-.063-.247l.001.003a.422.422 0 0 0-.18-.175l-.002-.001a.64.64 0 0 0-.283-.064h-.025.001-.023a.703.703 0 0 0-.279.057l.005-.002a.401.401 0 0 0-.179.143l-.001.001a.348.348 0 0 0-.059.195v.007c0 .056.013.107.041.153a.465.465 0 0 0 .127.127l.002.001c.056.039.125.077.208.112s.178.069.286.103c.182.055.341.116.478.185s.254.145.347.231c.094.086.163.182.211.29s.07.231.07.368l.001.032c0 .265-.129.5-.328.645l-.002.002c-.106.08-.234.14-.382.181-.143.04-.307.063-.477.063h-.02.001c-.164 0-.327-.022-.487-.065a1.49 1.49 0 0 1-.442-.202l.005.003a1.01 1.01 0 0 1-.308-.333l-.003-.005a.961.961 0 0 1-.117-.461v-.027.001h.688c0 .104.016.191.048.263.031.07.077.128.134.173l.001.001c.06.044.13.077.207.095l.004.001c.082.02.172.03.269.03h.026a.724.724 0 0 0 .272-.052l-.005.002a.362.362 0 0 0 .229-.336v-.006zm2.641-2.458v3.33h-.684v-3.33h.684zm1.025 0v.537H27v-.537h2.716zm2.625 2.794v.535h-1.772v-.535h1.772zm-1.548-2.794v3.33h-.687v-3.33h.687zm1.317 1.356v.521h-1.541v-.521h1.541zm.228-1.356v.537h-1.77v-.537h1.77zm.403 0h1.241a1.7 1.7 0 0 1 .656.114c.185.076.326.19.425.339s.148.333.148.551c0 .179-.03.332-.091.46a.854.854 0 0 1-.252.316l-.002.001a1.316 1.316 0 0 1-.372.199l-.009.003-.217.115h-1.079l-.005-.535H34.009a.632.632 0 0 0 .281-.066l-.004.002a.431.431 0 0 0 .178-.176l.001-.002a.541.541 0 0 0 .062-.253v-.013.001-.015a.603.603 0 0 0-.061-.265l.002.004a.405.405 0 0 0-.179-.178l-.002-.001a.659.659 0 0 0-.281-.062h-.025.001-.556v2.793h-.685v-3.33zm1.861 3.33-.759-1.485.724-.005.769 1.457v.031h-.734zm3.602-1.187h-.848v-.536h.848l.029.001a.69.69 0 0 0 .295-.066l-.004.002a.412.412 0 0 0 .179-.181l.001-.002a.676.676 0 0 0-.001-.544l.002.004a.463.463 0 0 0-.178-.205l-.002-.001a.59.59 0 0 0-.295-.079l-.026.001h.001-.611v2.793h-.685v-3.33h1.296c.261 0 .484.047.671.142.187.093.33.222.429.386s.148.353.148.564c0 .215-.049.401-.148.558s-.242.279-.429.364c-.187.086-.41.128-.671.128zm3.955.651v.535h-1.772v-.535h1.772zm-1.547-2.794v3.33h-.687v-3.33h.687zm1.316 1.356v.521h-1.541v-.521h1.541zm.229-1.356v.537h-1.769v-.537h1.77zm1.936 0v3.33h-.683v-3.33h.684zm1.025 0v.537h-2.716v-.537h2.716zm2.625 2.794v.535h-1.772v-.535h1.772zm-1.548-2.794v3.33h-.686v-3.33h.686zm1.317 1.356v.521h-1.541v-.521h1.541zm.228-1.356v.537h-1.769v-.537h1.769zm.403 0h1.282c.222 0 .434.042.628.118l-.012-.004c.184.076.326.19.425.339s.148.333.148.551c0 .179-.031.332-.091.46s-.146.234-.252.316l-.002.001a1.308 1.308 0 0 1-.373.199l-.009.003-.217.115h-1.079l-.005-.535H49.411a.632.632 0 0 0 .281-.066l-.004.002a.431.431 0 0 0 .178-.176l.001-.002a.55.55 0 0 0 .063-.255v-.011.001-.014a.592.592 0 0 0-.062-.266l.002.004a.4.4 0 0 0-.179-.178l-.002-.001a.659.659 0 0 0-.281-.062h-.025.001-.555v2.793h-.686v-3.33zm1.862 3.33-.759-1.485.725-.005.768 1.457v.031h-.734zm2.872-.872v-.005a.435.435 0 0 0-.029-.158l.001.003a.304.304 0 0 0-.095-.132h-.001a.828.828 0 0 0-.194-.119l-.005-.002a2.609 2.609 0 0 0-.311-.118l-.02-.005a3.94 3.94 0 0 1-.456-.175l.026.011a1.826 1.826 0 0 1-.361-.216l.004.003a.947.947 0 0 1-.239-.281l-.002-.005a.78.78 0 0 1-.088-.361v-.017.001c0-.139.03-.265.091-.377a.873.873 0 0 1 .256-.293c.109-.083.24-.146.389-.19.144-.042.31-.066.482-.066h.016-.001c.245 0 .46.044.642.133s.325.21.425.364c.102.154.153.33.153.528h-.681v-.012a.512.512 0 0 0-.063-.247l.001.003a.422.422 0 0 0-.18-.175l-.002-.001a.64.64 0 0 0-.283-.064h-.025.001-.023a.703.703 0 0 0-.279.057l.005-.002a.393.393 0 0 0-.178.143l-.001.001a.351.351 0 0 0-.059.196v.005c0 .056.013.107.041.153a.465.465 0 0 0 .127.127l.002.001c.056.039.125.077.208.112s.178.069.286.103c.182.055.341.116.478.185s.254.145.347.231c.094.086.163.182.211.29s.07.231.07.368l.001.032c0 .265-.129.5-.328.645l-.002.002c-.106.08-.234.14-.382.181-.143.04-.307.063-.477.063h-.02.001c-.165 0-.328-.022-.487-.065a1.49 1.49 0 0 1-.442-.202l.005.003a1.013 1.013 0 0 1-.309-.333l-.003-.005a.961.961 0 0 1-.117-.461v-.027.001h.688c0 .104.016.191.048.263.031.07.077.128.134.173l.001.001c.06.044.13.077.207.095l.004.001c.082.02.172.03.27.03h.025a.724.724 0 0 0 .272-.052l-.005.002a.362.362 0 0 0 .229-.336v-.005z" /></symbol><symbol id="booter" viewBox="0 0 32 32"><path stroke-linecap="round" stroke-linejoin="round" stroke-width="3" d="M1.348 25.043h29.538M1.348 15.735h29.538M1.348 6.428h29.538"/></symbol><symbol id="checbox-b" viewBox="0 0 32 32"><path d="M27.027 4.016A2.934 2.934 0 0 1 32 6.081v.002l.001.076c0 .772-.295 1.475-.777 2.003l.002-.002-15.661 19.693a2.938 2.938 0 0 1-3.281.726l.02.007a2.959 2.959 0 0 1-.979-.653L.938 17.491a2.955 2.955 0 0 1-.716-3.296l-.007.02a2.966 2.966 0 0 1 2.744-1.85h.042-.002c.83.015 1.574.374 2.097.939l.002.002 8.221 8.262L26.951 4.102c.026-.031.052-.059.08-.086h-.003z" /></symbol><symbol id="client-1-1" viewBox="0 0 32 32"><path d="m6.128 0 4.771 4.546-8.856-.005v22.054h23.149v-8.432l4.766 4.541V.001H6.128zm18.854 17.629L11.454 4.74h13.528v12.889zm-4.2 5.74H5.706V8.536h1.066v13.828h14.01v1.004zM8.712 30.68l.562-1.155h.462l-.815 1.529v.891H8.5v-.891l-.814-1.529h.464l.562 1.155zm2.071-1.155h.1l.914 2.42h-.439l-.196-.567h-.937l-.195.567h-.437l.911-2.42h.279zm-.443 1.522h.709l-.355-1.027-.354 1.027zm2.924-.401a2.435 2.435 0 0 0-.224.178.797.797 0 0 0-.168.209.527.527 0 0 0-.061.259c0 .133.032.251.095.354.064.103.155.184.273.243s.256.088.417.088c.133 0 .258-.021.376-.063a.952.952 0 0 0 .248-.136l.141.165h.464l-.355-.418a1.028 1.028 0 0 0 .177-.4c.023-.105.035-.217.035-.334h-.346a.974.974 0 0 1-.105.452l-.479-.566.168-.122c.064-.047.121-.096.17-.148s.087-.11.115-.173a.51.51 0 0 0 .042-.209.515.515 0 0 0-.279-.46.638.638 0 0 0-.317-.075.71.71 0 0 0-.334.075c-.095.049-.169.119-.221.209a.645.645 0 0 0-.026.565c.034.076.083.156.145.238l.053.068zm.199.243.539.633a.617.617 0 0 1-.391.137.447.447 0 0 1-.218-.05.344.344 0 0 1-.135-.138.413.413 0 0 1-.032-.289.416.416 0 0 1 .055-.12.658.658 0 0 1 .131-.138l.05-.036zm.096-.442-.028-.035a1.02 1.02 0 0 1-.105-.165.364.364 0 0 1-.038-.155c0-.052.009-.099.028-.141a.243.243 0 0 1 .231-.143c.081 0 .144.024.188.073s.067.102.067.16a.303.303 0 0 1-.045.17.536.536 0 0 1-.15.136l-.148.1zm4.234.71a.962.962 0 0 1-.133.424c-.075.123-.181.22-.317.291s-.302.106-.497.106a.988.988 0 0 1-.404-.08.88.88 0 0 1-.307-.229c-.085-.1-.151-.22-.196-.361a1.578 1.578 0 0 1-.067-.472v-.201c0-.174.023-.331.068-.472.047-.141.113-.261.2-.361a.853.853 0 0 1 .311-.231c.122-.053.259-.08.411-.08.193 0 .356.035.489.106s.236.169.309.294c.074.125.12.269.136.43h-.416a.768.768 0 0 0-.073-.268.383.383 0 0 0-.163-.17.58.58 0 0 0-.283-.06c-.095 0-.178.018-.249.053s-.13.087-.178.156a.747.747 0 0 0-.108.254c-.023.1-.035.214-.035.342v.204c0 .122.011.233.032.332a.789.789 0 0 0 .1.254c.045.071.103.126.173.165s.154.058.251.058a.642.642 0 0 0 .288-.056.383.383 0 0 0 .168-.165.743.743 0 0 0 .076-.268h.416zm2.309-.356v-.133c0-.183-.024-.346-.073-.49a1.08 1.08 0 0 0-.204-.371.868.868 0 0 0-.317-.234 1.005 1.005 0 0 0-.409-.081c-.148 0-.284.027-.407.081a.876.876 0 0 0-.317.234 1.084 1.084 0 0 0-.206.371 1.52 1.52 0 0 0-.073.49v.133c0 .183.024.347.073.492.05.145.12.269.209.371s.196.18.317.234c.123.053.259.08.407.08.15 0 .286-.027.409-.08a.879.879 0 0 0 .316-.234c.089-.102.157-.226.204-.371s.072-.309.072-.492zm-.418-.136v.136c0 .135-.013.255-.04.359a.777.777 0 0 1-.113.264.493.493 0 0 1-.431.214.556.556 0 0 1-.246-.053.527.527 0 0 1-.186-.161c-.051-.072-.09-.16-.116-.264s-.04-.224-.04-.359v-.136c0-.135.013-.254.04-.357a.784.784 0 0 1 .115-.261.5.5 0 0 1 .43-.215c.092 0 .175.018.248.055a.47.47 0 0 1 .184.16c.051.07.089.157.115.261.027.103.04.222.04.357z" /></symbol><symbol id="client-2-1" viewBox="0 0 32 32"><path d="M14.224 1.806c.142 0 .294.013.446.026l.045.004c.734.052 1.463.162 2.179.329V.403a12.97 12.97 0 0 0-2.25-.358 18.11 18.11 0 0 0-.909-.044h-.263a18.35 18.35 0 0 0-4.515.582 18.3 18.3 0 0 0-4.79 1.948v17.475a19.484 19.484 0 0 1 4.566-1.779 19.948 19.948 0 0 1 3.833-.588h.051c.216-.011.433-.017.655-.019v-1.79a21.155 21.155 0 0 0-4.982.662 23.81 23.81 0 0 0-1.731.513l-.623.211V3.591l.266-.128a17.409 17.409 0 0 1 6.471-1.651.523.523 0 0 1 .056 0c.248-.013.497-.019.741-.019h.28c.129.003.258.006.388.014h.084zm3.101 1.801c.391.03.795.044 1.205.044a19.352 19.352 0 0 0 4.747-.609c1.589-.4 3.123-.998 4.564-1.781v17.163a18.313 18.313 0 0 1-4.792 1.948 18.486 18.486 0 0 1-4.515.581 13.778 13.778 0 0 1-3.425-.404V3.274c.265.061.537.117.814.164.455.077.934.133 1.401.167zm8.735.133-.623.21c-.573.192-1.15.365-1.731.518a21.098 21.098 0 0 1-5.173.663c-.406 0-.78-.011-1.141-.034l-.497-.033v14.017l.427.038c.395.034.803.052 1.214.052a16.573 16.573 0 0 0 4.074-.527 17.107 17.107 0 0 0 3.184-1.144l.266-.128V3.742zM5.377 25.977a.912.912 0 0 0-.693-.28 1.034 1.034 0 0 0-.4.075.91.91 0 0 0-.512.518 1.023 1.023 0 0 0-.072.387v2.335c-.006.165.026.328.092.479.055.12.135.226.234.313a.815.815 0 0 0 .321.166c.114.032.231.048.349.049a.972.972 0 0 0 .892-.61.951.951 0 0 0 .075-.372v-.261h-.61v.208a.528.528 0 0 1-.036.208.359.359 0 0 1-.089.131.365.365 0 0 1-.128.067.425.425 0 0 1-.128.022.314.314 0 0 1-.286-.125.548.548 0 0 1-.081-.313v-2.177a.738.738 0 0 1 .075-.349.31.31 0 0 1 .299-.141.33.33 0 0 1 .272.131c.068.09.104.2.101.313v.202h.604v-.238a1.093 1.093 0 0 0-.279-.737zM9.002 25.95a1.051 1.051 0 0 0-1.38 0 .961.961 0 0 0-.237.327 1.099 1.099 0 0 0-.089.452v2.239a1.08 1.08 0 0 0 .089.459c.055.12.136.227.237.313a.94.94 0 0 0 .322.197 1.028 1.028 0 0 0 .728 0c.121-.044.233-.111.33-.197a.948.948 0 0 0 .23-.313 1.08 1.08 0 0 0 .089-.459v-2.239a1.08 1.08 0 0 0-.089-.452 1.015 1.015 0 0 0-.23-.327zm-.284 3.019a.405.405 0 0 1-.121.324.445.445 0 0 1-.574 0 .397.397 0 0 1-.121-.324V26.73a.405.405 0 0 1 .121-.324.445.445 0 0 1 .574 0 .397.397 0 0 1 .121.324v2.239zM13.764 29.969V25.73h-.587l-.771 2.244h-.011l-.777-2.244h-.581v4.239h.606V27.39h.011l.593 1.823h.302l.598-1.823h.011v2.579h.606zM17.205 26.027a.84.84 0 0 0-.343-.232 1.363 1.363 0 0 0-.439-.066h-.9v4.239h.604v-1.656h.311c.188.009.376-.031.545-.116a.882.882 0 0 0 .332-.324 1.02 1.02 0 0 0 .139-.369c.024-.16.035-.321.033-.482a2.421 2.421 0 0 0-.059-.606.898.898 0 0 0-.223-.39zm-.311 1.292a.547.547 0 0 1-.056.221.346.346 0 0 1-.156.149.619.619 0 0 1-.285.053h-.276v-1.441h.311a.578.578 0 0 1 .272.053.349.349 0 0 1 .142.157.62.62 0 0 1 .053.236v.282c0 .099.006.2 0 .291h-.006zM20.066 25.73h-.495l-.934 4.239h.604l.177-.911h.823l.177.911h.604l-.957-4.239zm-.557 2.751.297-1.537h.011l.296 1.537h-.604zM23.969 28.284h-.011l-.912-2.554h-.581v4.239h.604V27.42h.012l.923 2.549h.568V25.73h-.604v2.554zM27.66 25.73l-.486 1.685h-.012l-.486-1.685h-.64l.83 2.447v1.792h.604v-1.792l.83-2.447h-.64zM3.692 31.166h.291v.817h.198v-.817h.29v-.167h-.778v.167zM6.14 30.998l-.381.984h.21l.081-.224h.392l.084.224h.215l-.391-.984h-.21zm-.032.595.134-.365.134.365h-.268zM8.559 31.62h.227v.127a.38.38 0 0 1-.233.083.244.244 0 0 1-.209-.093.411.411 0 0 1-.073-.257c0-.219.095-.329.283-.329a.206.206 0 0 1 .222.157l.195-.038c-.042-.192-.181-.289-.417-.289a.495.495 0 0 0-.344.127.494.494 0 0 0-.141.379.532.532 0 0 0 .126.369.477.477 0 0 0 .374.144.59.59 0 0 0 .417-.157v-.388h-.427v.166zM11.029 30.998h-.199v.984h.69v-.167h-.49v-.817zM13.118 30.998h-.199v.984h.199v-.984zM15.161 31.656l-.403-.657h-.193v.984h.185v-.643l.395.643h.198v-.984h-.182v.657zM17.007 31.549h.49v-.167h-.49v-.216h.528v-.167h-.727v.984h.747v-.167h-.548v-.266zM21.484 31.387h-.388v-.388h-.198v.984h.198v-.43h.388v.43h.198v-.984h-.198v.388zM23.342 31.549h.492v-.167h-.492v-.216h.529v-.167h-.727v.984h.746v-.167h-.548v-.266zM25.86 31.549c.171-.027.258-.117.258-.274a.236.236 0 0 0-.096-.219.553.553 0 0 0-.288-.058h-.417v.984h.198v-.412h.039a.261.261 0 0 1 .123.022.21.21 0 0 1 .07.072l.215.313h.237l-.12-.192a.685.685 0 0 0-.218-.236zm-.199-.136h-.146v-.247h.156a.526.526 0 0 1 .201.023c.014.013.026.029.033.046a.133.133 0 0 1-.005.111.128.128 0 0 1-.037.043.547.547 0 0 1-.201.023zM27.76 31.549h.49v-.167h-.49v-.216h.529v-.167h-.729v.984h.747v-.167h-.548v-.266z" /></symbol><symbol id="client-3-1" viewBox="0 0 32 32"><path d="M4.953 30.344a.098.098 0 0 1 .062.024l.161.151a1.32 1.32 0 0 1-.452.286 1.776 1.776 0 0 1-.64.103 1.723 1.723 0 0 1-.602-.096 1.339 1.339 0 0 1-.454-.271 1.211 1.211 0 0 1-.293-.419 1.367 1.367 0 0 1-.102-.537 1.294 1.294 0 0 1 .11-.539c.07-.156.176-.298.311-.419.137-.118.301-.211.482-.273.198-.065.408-.098.62-.096.197-.004.393.026.576.087.159.059.305.141.432.242l-.135.161a.137.137 0 0 1-.034.029.092.092 0 0 1-.054.012.127.127 0 0 1-.058-.017l-.072-.043-.1-.055a1.147 1.147 0 0 0-.318-.096 1.47 1.47 0 0 0-.239-.017 1.316 1.316 0 0 0-.446.072 1.042 1.042 0 0 0-.349.202.937.937 0 0 0-.227.322 1.065 1.065 0 0 0-.082.425c-.002.147.025.293.082.432a.924.924 0 0 0 .556.52c.131.046.272.07.414.069a1.67 1.67 0 0 0 .245-.014.981.981 0 0 0 .53-.221.122.122 0 0 1 .076-.027zM9.59 29.586c.002.182-.034.363-.108.533-.065.155-.168.296-.302.414s-.296.211-.474.272a1.99 1.99 0 0 1-1.221 0 1.419 1.419 0 0 1-.472-.273 1.202 1.202 0 0 1-.305-.419 1.368 1.368 0 0 1 0-1.069c.068-.156.172-.299.305-.42.135-.114.295-.204.472-.262a1.96 1.96 0 0 1 1.221 0c.178.062.34.155.474.273a1.233 1.233 0 0 1 .411.95zm-.422 0a1.13 1.13 0 0 0-.076-.429.882.882 0 0 0-.554-.523 1.43 1.43 0 0 0-.887 0 .956.956 0 0 0-.339.202.867.867 0 0 0-.217.321 1.241 1.241 0 0 0 0 .858.867.867 0 0 0 .217.321c.094.088.21.156.339.201.286.091.601.091.887 0a.954.954 0 0 0 .339-.201.907.907 0 0 0 .215-.321c.054-.138.08-.283.076-.429zM12.754 30.035l.042.096c.016-.034.03-.065.046-.096a.862.862 0 0 1 .052-.094l1.026-1.593c.02-.027.038-.045.058-.05a.297.297 0 0 1 .084-.009h.303v2.592h-.359V28.894a.66.66 0 0 1 0-.089l-1.032 1.616c-.013.024-.034.045-.06.059s-.057.022-.088.022h-.058c-.031 0-.062-.007-.088-.021s-.047-.035-.06-.059l-1.062-1.626v2.081h-.347v-2.586h.303a.264.264 0 0 1 .084.009.11.11 0 0 1 .056.05l1.048 1.595c.021.03.038.061.052.093zM16.614 29.907v.971h-.401V28.29h.895c.169-.003.338.016.5.057.13.032.25.086.353.161.089.07.158.157.201.254a.765.765 0 0 1 .068.331.727.727 0 0 1-.291.59 1.046 1.046 0 0 1-.355.172c-.156.043-.32.063-.484.06l-.486-.007zm0-.278h.486c.106.001.211-.012.311-.039a.706.706 0 0 0 .225-.111.488.488 0 0 0 .185-.39c.005-.072-.009-.144-.04-.211s-.079-.127-.14-.177a.875.875 0 0 0-.54-.139h-.486v1.067zM22.011 30.881h-.317a.148.148 0 0 1-.14-.084l-.273-.626H19.91l-.283.626a.15.15 0 0 1-.14.084h-.317l1.204-2.592h.418l1.221 2.592zm-1.988-.962h1.132l-.478-1.055a1.556 1.556 0 0 1-.09-.244l-.046.136c-.014.041-.03.079-.044.11l-.474 1.053zM23.745 28.301a.163.163 0 0 1 .06.046l1.757 1.954v-2.012h.359v2.592h-.201a.203.203 0 0 1-.082-.015.207.207 0 0 1-.064-.048l-1.755-1.952a.66.66 0 0 1 0 .089v1.926h-.359v-2.592h.213a.176.176 0 0 1 .072.012zM28.88 29.85v1.029h-.402V29.85l-1.11-1.561h.359a.14.14 0 0 1 .086.022c.022.017.04.036.054.058l.695 1.007a1.05 1.05 0 0 1 .122.23l.052-.111a.925.925 0 0 1 .068-.118l.684-1.014a.27.27 0 0 1 .052-.055.137.137 0 0 1 .086-.026h.363l-1.112 1.568zM12.555 23.94c.175.019.351.034.53.048 2.709-1.035 5-2.73 6.588-4.872s2.402-4.636 2.339-7.171l-2.985-2.551c.607 2.699.323 5.489-.82 8.058s-3.1 4.815-5.652 6.488z" /><path d="m11.489 23.821.08.014c2.727-1.667 4.806-3.994 5.969-6.681s1.355-5.61.552-8.392l-4.252-3.633c1.72 2.986 2.412 6.328 1.996 9.637s-1.923 6.449-4.345 9.055zM25.909 14.94c-.722 2.785-2.477 5.297-5.003 7.163a15.948 15.948 0 0 1-2.377 1.458c2.057-.517 3.947-1.43 5.526-2.669s2.803-2.772 3.578-4.48l-1.724-1.472z" /><path d="m25.233 14.53-2.455-2.098c-.047 2.392-.843 4.729-2.305 6.769s-3.537 3.708-6.008 4.831h.012c.551 0 1.101-.028 1.648-.084 2.31-.806 4.351-2.087 5.94-3.731s2.678-3.597 3.168-5.688zM11.844 3.597 8.915 1.091c-2.618.865-4.87 2.384-6.461 4.36S.008 9.768 0 12.166c.01 2.65 1.054 5.222 2.967 7.308s4.586 3.568 7.595 4.21c2.686-2.796 4.259-6.252 4.49-9.864s-.893-7.193-3.207-10.223zM32 14.144c-.011-3.144-1.477-6.157-4.079-8.38s-6.129-3.476-9.809-3.485c-1.7-.002-3.387.267-4.973.791l17.933 15.322c.614-1.354.928-2.794.927-4.247z" /></symbol><symbol id="close-black" viewBox="0 0 32 32"><path d="M32 3.224 28.776 0 16 12.776 3.224 0 0 3.224 12.776 16 0 28.776 3.224 32 16 19.224 28.776 32 32 28.776 19.224 16 32 3.224z"/></symbol><symbol id="close-menu" viewBox="0 0 32 32"><path d="M32 3.224 28.776 0 16 12.776 3.224 0 0 3.224 12.776 16 0 28.776 3.224 32 16 19.224 28.776 32 32 28.776 19.224 16 32 3.224z"/></symbol><symbol id="diligence" viewBox="0 0 32 32"><path d="M14.926 14.965h1.066v4.798h-1.066v-4.797zM19.19 17.097h1.066v2.665H19.19v-2.665zM10.661 18.696h1.066v1.066h-1.066v-1.066zM7.463 18.163h1.066v1.599H7.463v-1.599z" /><path d="M1.599 28.291h25.587a1.6 1.6 0 0 0 1.599-1.599V24.56a1.6 1.6 0 0 0-1.599-1.599h-.533V9.668L29.681 6.8a1.608 1.608 0 1 0-.746-.763L26.654 8.2V6.97a1.6 1.6 0 0 0-1.599-1.599H3.733A1.6 1.6 0 0 0 2.134 6.97v15.992h-.533a1.6 1.6 0 0 0-1.599 1.599v2.132a1.6 1.6 0 0 0 1.599 1.599zM30.384 4.837a.533.533 0 1 1 0 1.067.533.533 0 0 1 0-1.067zM3.198 6.969c0-.294.239-.533.533-.533h21.322c.294 0 .533.239.533.533v2.239l-1.066 1.013V8.035a.533.533 0 0 0-.533-.533H4.797a.533.533 0 0 0-.533.533v13.326c0 .294.239.533.533.533h19.19a.533.533 0 0 0 .533-.533v-9.674l1.066-1.01v12.284H3.198V6.969zm4.798 6.93a1.598 1.598 0 1 0 1.107 2.749l1.853.93a.532.532 0 0 0 .636-.123l3.939-4.431 3.872 2.901a.533.533 0 0 0 .686-.039l3.365-3.188v8.131H5.33V8.569h18.124v2.66l-3.771 3.572-3.904-2.927a.533.533 0 0 0-.718.072l-3.993 4.493-1.493-.746c.011-.064.018-.129.02-.193a1.6 1.6 0 0 0-1.599-1.599zm.533 1.599a.533.533 0 1 1-1.067 0 .533.533 0 0 1 1.067 0zm3.198 8.529h5.331v.533a.533.533 0 0 1-.533.533h-4.264a.533.533 0 0 1-.533-.533v-.533zm-10.661.533c0-.294.239-.533.533-.533h9.062v.533a1.6 1.6 0 0 0 1.599 1.599h4.264a1.6 1.6 0 0 0 1.599-1.599v-.533h9.062c.294 0 .533.239.533.533v2.132a.533.533 0 0 1-.533.533H1.598a.533.533 0 0 1-.533-.533V24.56z" /></symbol><symbol id="email-black" viewBox="0 0 32 32"><path d="M24 8H8c-1.1 0-1.989.9-1.989 2L6 22c0 1.1.9 2 2 2h16c1.1 0 2-.9 2-2V10c0-1.1-.9-2-2-2zm-.4 4.251-7.069 4.419c-.151.094-.334.15-.531.15s-.38-.056-.535-.153l.004.002L8.4 12.25a.85.85 0 1 1 .902-1.437L15.999 15l6.7-4.191a.849.849 0 1 1 .903 1.437l-.004.002z"/></symbol><symbol id="frame" viewBox="0 0 32 32"><path d="M16 16a4 4 0 0 0 0-8 4 4 0 0 0 0 8zm0 2c-2.671 0-8 1.34-8 4v1c0 .551.449 1 1 1h14c.549 0 1-.449 1-1v-1c0-2.66-5.331-4-8-4z"/></symbol><symbol id="icon-send" viewBox="0 0 32 32"><path d="m32 2.667-32 15 10.227 3.156L26 8.5 14.003 21.988l.009.004-.012-.004v7.345l5.735-5.576L27.002 26l4.999-23.333z" /></symbol><symbol id="logo-facebook" viewBox="0 0 32 32"><path d="M21.33 5.314h2.92V.226A36.551 36.551 0 0 0 20.125 0h-.138.007C15.782 0 12.9 2.65 12.9 7.52V12H8.25v5.688h4.648V32h5.698V17.69h4.46l.708-5.69h-5.17V8.08c.002-1.644.444-2.768 2.736-2.768z" /></symbol><symbol id="logo-instagram" viewBox="0 0 32 32"><path d="M31.968 9.408c-.074-1.7-.35-2.87-.744-3.882a7.844 7.844 0 0 0-1.849-2.839l-.001-.001A7.898 7.898 0 0 0 26.596.862l-.054-.018c-1.02-.394-2.18-.67-3.88-.744C20.946.02 20.4 0 16.06 0c-4.346 0-4.89.02-6.596.094-1.7.074-2.868.35-3.88.744a7.844 7.844 0 0 0-2.839 1.849l-.001.001A7.89 7.89 0 0 0 .918 5.466L.9 5.52C.506 6.54.232 7.7.156 9.4c-.08 1.714-.1 2.26-.1 6.602 0 4.346.02 4.89.094 6.596.074 1.7.35 2.87.744 3.882a7.886 7.886 0 0 0 1.85 2.838c.8.812 1.77 1.444 2.832 1.844 1.02.394 2.18.67 3.882.744 1.706.076 2.25.094 6.596.094 4.344 0 4.888-.02 6.594-.094 1.7-.074 2.87-.35 3.882-.744a8.233 8.233 0 0 0 4.663-4.627l.019-.055c.394-1.02.67-2.18.744-3.882.076-1.706.094-2.25.094-6.596 0-4.344-.006-4.888-.08-6.594zm-2.88 13.064c-.07 1.564-.332 2.408-.552 2.97a5.34 5.34 0 0 1-3.002 3.027l-.036.013c-.562.218-1.412.48-2.968.548-1.688.076-2.194.094-6.464.094s-4.782-.02-6.464-.094c-1.564-.068-2.408-.33-2.97-.55a4.947 4.947 0 0 1-1.837-1.193l-.001-.001a5.001 5.001 0 0 1-1.183-1.804l-.011-.034c-.22-.562-.48-1.412-.55-2.968-.074-1.688-.094-2.196-.094-6.464 0-4.27.02-4.782.094-6.464.07-1.564.332-2.408.55-2.97a4.888 4.888 0 0 1 1.2-1.838A4.96 4.96 0 0 1 6.64 3.55c.56-.22 1.412-.48 2.968-.55 1.688-.074 2.194-.094 6.464-.094 4.276 0 4.78.02 6.464.094 1.562.07 2.406.332 2.968.55a4.929 4.929 0 0 1 1.84 1.194 4.98 4.98 0 0 1 1.192 1.84c.22.56.482 1.41.55 2.968.076 1.688.094 2.194.094 6.464s-.018 4.77-.092 6.456z" /><path d="M16.06 7.782a8.222 8.222 0 0 0-.01 16.44h.009a8.222 8.222 0 0 0 .01-16.44h-.009zm0 13.554a5.334 5.334 0 1 1 0-10.668 5.334 5.334 0 1 1 0 10.668zM26.524 7.458a1.92 1.92 0 0 1-3.84 0 1.92 1.92 0 0 1 3.84 0z" /></symbol><symbol id="logo-linkedin" viewBox="0 0 32 32"><path d="M31.992 32H32V20.26c0-5.74-1.236-10.164-7.948-10.164-3.226 0-5.392 1.772-6.276 3.45h-.094v-2.912H11.32V32h6.628V21.42c0-2.784.528-5.476 3.976-5.476 3.4 0 3.45 3.178 3.45 5.656V32h6.62zM.528 10.636h6.634V32H.528V10.636zM3.842 0C1.722 0 .002 1.72.002 3.84s1.72 3.88 3.84 3.88c2.122 0 3.844-1.76 3.844-3.88S5.96 0 3.84 0z" /></symbol><symbol id="logo-twitter" viewBox="0 0 32 32"><path d="M32 6.078c-1.1.494-2.376.858-3.712 1.029l-.068.007a6.56 6.56 0 0 0 2.873-3.58l.013-.046a12.858 12.858 0 0 1-4.076 1.574l-.084.014A6.56 6.56 0 0 0 15.598 9.56c0 .52.044 1.02.152 1.496A18.554 18.554 0 0 1 2.255 4.228l-.027-.034a6.496 6.496 0 0 0-.895 3.311 6.562 6.562 0 0 0 2.888 5.442l.023.015a6.465 6.465 0 0 1-2.997-.823l.033.017v.072a6.592 6.592 0 0 0 5.213 6.438l.043.008a6.408 6.408 0 0 1-1.669.216h-.054.003a5.842 5.842 0 0 1-1.279-.118l.037.006c.873 2.624 3.273 4.496 6.121 4.57h.009a13.098 13.098 0 0 1-8.12 2.798h-.015.001c-.538 0-1.054-.024-1.57-.09C2.826 27.902 6.287 29 10.004 29h.063-.003c12.072 0 18.672-10 18.672-18.668 0-.29-.01-.57-.024-.848a13.186 13.186 0 0 0 3.258-3.359l.03-.047z" /></symbol><symbol id="menu-facebook" viewBox="0 0 32 32"><path d="M21.328 5.313h2.921V.225C23.746.156 22.013 0 19.993 0c-4.212 0-7.096 2.649-7.096 7.519V12H8.249v5.688h4.648V32h5.699V17.689h4.46l.707-5.688h-5.169V8.082c.003-1.644.444-2.769 2.735-2.769z" /></symbol><symbol id="menu-instagram" viewBox="0 0 32 32"><path d="M31.968 9.408c-.075-1.7-.349-2.869-.743-3.883a7.845 7.845 0 0 0-1.849-2.836l-.001-.001A7.89 7.89 0 0 0 26.597.862l-.054-.018C25.524.451 24.36.173 22.66.1c-1.712-.08-2.256-.1-6.6-.1-4.347 0-4.889.019-6.596.093-1.7.076-2.869.351-3.881.744a7.84 7.84 0 0 0-2.837 1.849l-.001.001A7.89 7.89 0 0 0 .919 5.465l-.018.054C.508 6.538.232 7.7.157 9.399c-.08 1.715-.1 2.259-.1 6.603 0 4.345.019 4.889.093 6.596.077 1.7.351 2.868.744 3.881a7.934 7.934 0 0 0 1.85 2.838l.001.001a7.867 7.867 0 0 0 2.832 1.844c1.019.393 2.181.668 3.881.744 1.707.075 2.251.093 6.596.093 4.344 0 4.888-.019 6.595-.093 1.7-.076 2.869-.351 3.881-.744a8.233 8.233 0 0 0 4.663-4.627l.019-.055c.393-1.019.669-2.181.744-3.881.075-1.707.093-2.251.093-6.596 0-4.344-.005-4.888-.08-6.595zm-2.88 13.065c-.071 1.563-.333 2.407-.551 2.969a5.34 5.34 0 0 1-3.004 3.025l-.036.012c-.561.22-1.412.481-2.968.551-1.688.075-2.195.093-6.464.093s-4.783-.019-6.464-.093c-1.563-.069-2.407-.331-2.969-.551a4.945 4.945 0 0 1-1.836-1.192l-.001-.001a4.971 4.971 0 0 1-1.183-1.803l-.011-.034c-.219-.563-.48-1.413-.549-2.969-.076-1.688-.093-2.195-.093-6.464 0-4.271.017-4.783.093-6.464.068-1.563.331-2.407.549-2.969a4.899 4.899 0 0 1 1.2-1.839 4.973 4.973 0 0 1 1.804-1.182l.034-.011c.563-.219 1.413-.48 2.969-.551 1.688-.075 2.195-.093 6.464-.093 4.276 0 4.781.019 6.464.093 1.563.069 2.407.332 2.969.551a4.94 4.94 0 0 1 1.837 1.193c.531.52.937 1.144 1.193 1.839.22.563.481 1.413.551 2.969.075 1.688.093 2.193.093 6.464 0 4.269-.019 4.769-.093 6.457z" /><path d="M16.059 7.783a8.224 8.224 0 0 0-8.22 8.22 8.222 8.222 0 0 0 8.22 8.221 8.223 8.223 0 0 0 8.22-8.221 8.224 8.224 0 0 0-8.22-8.22zm0 13.553a5.333 5.333 0 0 1 .001-10.666h.001a5.333 5.333 0 0 1-.001 10.666h-.001zM26.524 7.457l.001.072a1.92 1.92 0 0 1-3.84 0l.001-.075v.004a1.92 1.92 0 0 1 3.838-.003v.004z" /></symbol><symbol id="menu-linkedin" viewBox="0 0 32 32"><path d="M31.992 32H32V20.263c0-5.741-1.236-10.164-7.947-10.164-3.227 0-5.393 1.771-6.277 3.449h-.093v-2.913H11.32V32h6.627V21.421c0-2.785.528-5.479 3.977-5.479 3.4 0 3.449 3.179 3.449 5.657v10.4h6.62zM.528 10.636h6.635V32H.528V10.636zM3.843 0A3.845 3.845 0 0 0 0 3.843c0 2.121 1.721 3.879 3.843 3.879s3.843-1.757 3.843-3.879A3.846 3.846 0 0 0 3.843 0z" /></symbol><symbol id="menu-twitter" viewBox="0 0 32 32"><path d="M32 6.079a13.692 13.692 0 0 1-3.78 1.035 6.562 6.562 0 0 0 2.874-3.579l.013-.046a12.858 12.858 0 0 1-4.076 1.574l-.084.014a6.559 6.559 0 0 0-11.348 4.481v.006c0 .52.044 1.019.152 1.495-5.455-.265-10.28-2.88-13.523-6.861a6.57 6.57 0 0 0 2.016 8.768 6.454 6.454 0 0 1-2.997-.825l.033.017v.072a6.594 6.594 0 0 0 5.213 6.439l.043.008a6.584 6.584 0 0 1-1.72.216l-.104.001c-.403 0-.797-.041-1.176-.119l.037.006c.851 2.597 3.263 4.507 6.131 4.569a13.098 13.098 0 0 1-8.121 2.799H1.57h.001c-.539 0-1.055-.024-1.571-.091 2.826 1.846 6.287 2.944 10.004 2.944h.063-.003c12.072 0 18.672-10 18.672-18.668 0-.289-.011-.569-.024-.848a13.198 13.198 0 0 0 3.258-3.358l.03-.047z" /></symbol><symbol id="phone-black" viewBox="0 0 32 32"><path d="m23.635 18.487-2.451-.28a1.927 1.927 0 0 0-1.583.551l-1.775 1.775c-2.752-1.42-4.94-3.607-6.322-6.278l-.038-.081 1.787-1.785a1.914 1.914 0 0 0 .548-1.591l.001.009-.28-2.432a1.933 1.933 0 0 0-1.918-1.708H9.933c-1.091 0-1.997.907-1.929 1.997.511 8.24 7.101 14.821 15.332 15.333 1.091.067 1.997-.84 1.997-1.931v-1.68c0-.981-.739-1.789-1.69-1.899l-.009-.001z"/></symbol><symbol id="punctuality" viewBox="0 0 32 32"><path d="M31.297 15.301C31.295 6.849 24.442-.002 15.989 0S.686 6.855.688 15.308a15.304 15.304 0 0 0 10.649 14.576.662.662 0 0 0 .529-.065.637.637 0 0 0 .283-.356l3.865-12.25a1.912 1.912 0 1 0-.84-3.635l-5.106-5.107a.637.637 0 0 0-.902.902l5.103 5.109a1.876 1.876 0 0 0 .536 2.309l-3.683 11.673C3.844 25.783.118 17.71 2.799 10.432S13.553-.572 20.831 2.109c7.278 2.681 11.004 10.754 8.323 18.032a14.042 14.042 0 0 1-7.462 7.973l-.398-1.874a.637.637 0 0 0-1.049-.344l-3.837 3.426a.637.637 0 0 0 .231 1.084l4.899 1.564a.638.638 0 0 0 .819-.74l-.391-1.839a15.255 15.255 0 0 0 9.329-14.089zm-15.305-.637a.638.638 0 1 1 0 1.277.638.638 0 0 1 0-1.277zm2.101 14.864 2.184-1.948.603 2.84-2.787-.892z" /><path d="M15.354 3.185V4.46a.638.638 0 1 0 1.276 0V3.185a.638.638 0 0 0-1.276 0zM3.876 14.664a.638.638 0 0 0 0 1.276h1.275a.638.638 0 1 0 0-1.276H3.876zM28.108 15.939a.638.638 0 1 0 0-1.276h-1.275a.638.638 0 0 0 0 1.276h1.275z" /></symbol><symbol id="strategy" viewBox="0 0 30 32"><path d="m29.773 22.098-8.443-8.505.937-4.615c.242.094.499.144.758.146h.006a2.159 2.159 0 1 0-2.008-1.435l-4.96.605L7.972.161a.534.534 0 0 0-.377-.16.532.532 0 0 0-.373.155L5.709 1.66a.534.534 0 0 0 0 .754l.814.826a14.943 14.943 0 0 0 2.519 17.663.513.513 0 0 0 .146.098c-.034.18-.051.364-.052.547v6.187h-6.4a2.67 2.67 0 0 0-2.667 2.667v1.067c0 .295.239.533.533.533h24.533a.533.533 0 0 0 .533-.533v-1.067a2.67 2.67 0 0 0-2.667-2.667h-6.4v-2.742a15.09 15.09 0 0 0 3.049.32 14.854 14.854 0 0 0 7.04-1.783l.818.823a.534.534 0 0 0 .377.16.532.532 0 0 0 .373-.155l1.513-1.504a.534.534 0 0 0 0-.754zM22.28 6.233a1.067 1.067 0 1 1 .753 1.822h-.003a1.067 1.067 0 0 1-.747-1.823h-.002zm-1.256 3.505-.598 2.946-1.175-1.182 1.774-1.763zm-.605-.902-1.92 1.909-1.485-1.493 3.405-.415zM23.004 28.8a1.6 1.6 0 0 1 1.6 1.6v.533H1.137V30.4a1.6 1.6 0 0 1 1.6-1.6h20.267zm-7.467-2.133v1.067h-5.333v-1.067h5.333zM10.204 25.6v-4.053c0-1.294 1.196-2.347 2.667-2.347s2.667 1.053 2.667 2.347V25.6h-5.333zm6.4-1.696v-2.357c0-1.882-1.675-3.413-3.733-3.413A3.8 3.8 0 0 0 9.59 19.92 13.87 13.87 0 0 1 7.311 4.033l18.602 18.708a13.818 13.818 0 0 1-9.309 1.163zm11.289-.684L6.836 2.039l.755-.752 7.935 7.98c.004 0 .006.007.01.01l13.115 13.191-.757.752z" /><path d="M12.876 20.267h-.005a1.6 1.6 0 1 0-.004 3.2h.005a1.6 1.6 0 1 0 .004-3.2zm.373 1.978a.534.534 0 0 1-.752-.756.534.534 0 0 1 .373-.155.534.534 0 0 1 .374.911h.005z" /></symbol><symbol id="technologies" viewBox="0 0 32 32"><path d="M31.974 4.524a.534.534 0 0 0-.43-.363l-1.91-.278-.855-1.731c-.179-.365-.777-.365-.956 0l-.855 1.731-1.91.278a.535.535 0 0 0-.296.91l1.383 1.348-.326 1.903c-.034.2.048.402.212.522a.53.53 0 0 0 .562.04l1.709-.899 1.709.899a.536.536 0 0 0 .775-.563l-.326-1.903 1.383-1.348a.536.536 0 0 0 .135-.547zm-2.463 1.327a.534.534 0 0 0-.153.472l.191 1.114-1-.526a.533.533 0 0 0-.498 0l-1.001.526.191-1.114a.534.534 0 0 0-.153-.472l-.81-.789 1.119-.163a.532.532 0 0 0 .402-.292l.5-1.013.5 1.013a.535.535 0 0 0 .402.292l1.119.163-.809.789zM26.134 20.522h-1.067v1.067h1.067v-1.067zM26.134 22.656h-1.067v1.067h1.067v-1.067zM27.2 21.589h-1.067v1.067H27.2v-1.067zM25.067 21.589H24v1.067h1.067v-1.067zM22.4 26.389h-1.067v1.067H22.4v-1.067zM22.4 28.522h-1.067v1.067H22.4v-1.067zM23.467 27.456H22.4v1.067h1.067v-1.067zM21.333 27.456h-1.067v1.067h1.067v-1.067zM16 24.256h-1.067v1.067H16v-1.067zM16 26.389h-1.067v1.067H16v-1.067zM17.067 25.322H16v1.067h1.067v-1.067zM14.933 25.322h-1.067v1.067h1.067v-1.067zM5.867 6.122H4.8v1.067h1.067V6.122zM5.867 8.255H4.8v1.067h1.067V8.255z" /><path d="M6.933 7.189H5.866v1.067h1.067V7.189zM4.8 7.189H3.733v1.067H4.8V7.189z" /><path d="M24.715 14.159a1.775 1.775 0 0 0-1.188-.705 1.778 1.778 0 0 0-1.34.352l-1.252.96-1.898 1.417-1.358-.541c2.421-1.086 4.114-3.508 4.114-6.32 0-3.823-3.123-6.933-6.961-6.933s-6.961 3.11-6.961 6.933a6.86 6.86 0 0 0 1.12 3.758l-2.764-.024h-.005c-.009 0-.015.004-.023.005a.515.515 0 0 0-.155.031l-.038.013c-.006.003-.013.003-.019.006l-3.233 1.596-.001.001-1.893.911a.397.397 0 0 0-.063.035 1.779 1.779 0 0 0-.598 2.295c.22.429.595.745 1.056.889a1.776 1.776 0 0 0 1.378-.128l1.388-.738 2.264-1.169 1.357-.008L2.2 22.211l-.002.001-1.339 1.333c-.316.315-.49.732-.49 1.178s.174.863.49 1.179c.325.323.752.485 1.179.485s.854-.162 1.18-.485l1.314-1.309 1.741-1.3.901.897-1.762 1.754-.002.001-1.339 1.333c-.316.315-.49.732-.49 1.178s.174.863.49 1.179c.325.323.753.485 1.18.485s.855-.162 1.18-.485l3.482-3.467.001-.002 1.01-1-.004-.004c.006-.006.015-.009.022-.015l5.166-5.658 3.471.494a.52.52 0 0 0 .262-.033c.018-.006.033-.015.05-.023.019-.01.039-.015.058-.027l3.213-2.133c.012-.008.018-.021.029-.029.013-.01.029-.014.041-.026l1.271-1.191c.662-.62.753-1.635.212-2.362zM2.13 17.77a.714.714 0 0 1-.558.052.717.717 0 0 1-.213-1.26l1.314-.632.449 1.313-.992.527zm3.498-1.828-1.548.8-.439-1.283 2.027-1.001-.04 1.484zm15.099-6.62a5.79 5.79 0 0 1-.599 2.559l-4.181-1.899a1.863 1.863 0 0 0-.788-1.388l1.464-4.86c2.378.756 4.105 2.974 4.105 5.588zm-11.789 0c0-3.235 2.644-5.867 5.894-5.867.253 0 .5.021.745.052l-1.432 4.754c-.019-.001-.037-.006-.057-.006-1.033 0-1.873.837-1.873 1.867s.84 1.867 1.873 1.867c.694 0 1.294-.383 1.618-.945l3.862 1.755a5.894 5.894 0 0 1-4.737 2.39c-3.25 0-5.894-2.632-5.894-5.867zm5.956.8c0 .441-.362.8-.806.8s-.806-.359-.806-.8c0-.441.362-.8.806-.8s.806.359.806.8zM2.465 25.146a.608.608 0 0 1-.854.001.592.592 0 0 1 0-.844l.962-.958.851.848-.959.955zm3.214 3.734a.608.608 0 0 1-.855.001.592.592 0 0 1 0-.844l.963-.959.852.848-.96.955zm3.481-3.469-.002.001-1.765 1.76-.852-.848 1.763-1.755.002-.001c.04-.04.065-.088.09-.135.007-.014.02-.026.026-.04.017-.041.019-.085.026-.129.003-.025.014-.047.014-.073 0-.036-.013-.07-.02-.106-.006-.032-.006-.065-.019-.095a.55.55 0 0 0-.091-.138c-.01-.012-.014-.027-.025-.038h-.001l-.001-.002-1.607-1.6c-.017-.017-.039-.024-.058-.038a.507.507 0 0 0-.087-.058.515.515 0 0 0-.093-.033.507.507 0 0 0-.103-.02.5.5 0 0 0-.095.005.53.53 0 0 0-.104.02.477.477 0 0 0-.094.045c-.02.011-.042.015-.061.029L4.23 23.486l-.901-.897 2.399-2.386 4.361 4.289-.928.919zm6.819-7.017c-.015-.002-.03.004-.045.003a.556.556 0 0 0-.3.075.492.492 0 0 0-.083.061c-.013.011-.028.017-.04.029l-4.698 5.146-4.328-4.257 2.833-2.818a.534.534 0 0 0-.379-.911v-.001l-2.219.013.028-1.607 3.104.027a6.947 6.947 0 0 0 4.981 2.101c.437 0 .864-.045 1.279-.123.04.032.079.065.13.085l2.41.96.152.758.178.885-3.003-.427zm4.041.178-.313-1.558 1.446-1.08.947 1.257-2.08 1.381zm3.754-2.831-.838.785-.931-1.236.831-.637a.735.735 0 0 1 .543-.143.718.718 0 0 1 .48.284.713.713 0 0 1-.085.947z" /><path d="m13.602 18.544-2.143-2.133a.534.534 0 0 0-.753 0l-2.142 2.133a.537.537 0 0 0 0 .756l2.142 2.133a.536.536 0 0 0 .753 0l2.143-2.133a.535.535 0 0 0 0-.756zm-2.519 1.759-1.387-1.381 1.387-1.381 1.387 1.381-1.387 1.381zM17.164 5.071l-.258 1.036c.071.018 1.738.452 1.738 2.149h1.067c0-2.017-1.666-2.965-2.547-3.185zM19.711 9.322h-1.067v1.067h1.067V9.322z" /></symbol></defs></svg>